<svg id="svg" version="1.1" xmlns="http://www.w3.org/2000/svg" xmlns:xlink="http://www.w3.org/1999/xlink" width="400" height="200" viewBox="0, 0, 600,200">
  <g id="svgg">
    <path id="path0" d="M223.500 113.266 L 223.500 158.198 225.363 160.557 C 226.388 161.855,228.031 163.929,229.014 165.167 C 235.953 173.901,237.909 176.370,240.417 179.555 C 241.975 181.534,243.300 183.138,243.360 183.118 C 243.421 183.099,245.540 180.855,248.069 178.131 L 252.667 173.178 252.667 120.756 L 252.667 68.333 238.083 68.333 L 223.500 68.333 223.500 113.266 M185.505 132.042 C 185.509 161.714,185.554 169.695,185.714 169.492 C 185.825 169.350,187.229 167.632,188.833 165.675 C 192.741 160.906,193.938 159.442,203.412 147.833 C 205.693 145.037,207.940 142.286,208.405 141.720 C 209.510 140.372,209.263 140.237,211.977 143.667 C 213.283 145.317,214.385 146.667,214.426 146.667 C 214.467 146.667,214.500 134.892,214.500 120.500 L 214.500 94.333 200.000 94.333 L 185.500 94.333 185.505 132.042 M147.500 125.806 C 147.390 125.842,147.333 131.795,147.333 143.233 L 147.333 160.605 149.877 163.094 C 151.277 164.463,156.933 170.027,162.447 175.458 C 167.961 180.890,172.545 185.333,172.633 185.333 C 172.722 185.333,172.980 185.090,173.207 184.792 C 173.434 184.494,174.268 183.470,175.061 182.518 L 176.501 180.785 176.459 153.306 L 176.417 125.826 162.042 125.788 C 154.136 125.767,147.592 125.775,147.500 125.806 " stroke="none" fill="#279bce" fill-rule="evenodd">
      
    </path>
    
    <path id="path1" d="M0.000 160.000 L 0.000 320.000 200.000 320.000 L 400.000 320.000 400.000 160.000 L 400.000 0.000 200.000 0.000 L 0.000 0.000 0.000 160.000 M252.833 120.768 L 252.833 173.163 250.384 175.790 C 249.037 177.235,247.486 178.904,246.936 179.500 C 246.386 180.096,245.342 181.201,244.616 181.956 L 243.295 183.328 242.010 181.706 C 241.303 180.813,239.564 178.621,238.146 176.833 C 236.728 175.046,234.115 171.746,232.339 169.500 C 230.563 167.254,228.537 164.704,227.836 163.833 C 227.136 162.962,225.873 161.370,225.031 160.295 L 223.500 158.340 223.500 113.338 L 223.500 68.335 237.875 68.293 C 245.781 68.269,252.381 68.277,252.542 68.311 C 252.819 68.369,252.833 71.002,252.833 120.768 M214.590 94.375 C 214.633 94.490,214.650 106.396,214.626 120.833 L 214.583 147.083 212.019 143.862 C 209.932 141.239,209.417 140.681,209.248 140.862 C 209.052 141.071,202.589 148.968,199.167 153.180 C 197.460 155.280,194.035 159.471,190.614 163.644 C 189.439 165.077,187.829 167.056,187.034 168.042 C 186.240 169.027,185.533 169.833,185.462 169.833 C 185.305 169.833,185.288 94.435,185.444 94.278 C 185.669 94.053,214.504 94.149,214.590 94.375 M330.242 105.625 C 330.033 106.783,327.461 123.295,327.003 126.417 C 326.014 133.162,325.300 137.584,325.179 137.713 C 325.112 137.785,323.377 136.497,321.324 134.852 C 319.271 133.207,317.529 131.899,317.454 131.945 C 317.378 131.992,314.979 134.705,312.122 137.973 C 297.702 154.473,269.870 186.333,264.999 191.917 C 259.189 198.576,247.017 212.511,245.200 214.583 C 244.156 215.775,243.238 216.773,243.162 216.802 C 243.086 216.830,241.612 215.074,239.887 212.899 C 238.162 210.724,236.000 207.999,235.083 206.843 C 228.120 198.065,225.024 194.161,223.589 192.348 C 219.675 187.406,217.301 184.412,215.249 181.833 C 214.045 180.321,212.244 178.052,211.247 176.792 C 210.249 175.531,209.378 174.500,209.310 174.500 C 209.242 174.500,208.651 175.156,207.998 175.958 C 206.557 177.725,206.277 178.068,194.753 192.167 C 194.191 192.854,190.177 197.767,185.832 203.083 C 173.980 217.587,173.646 217.993,173.523 218.069 C 173.394 218.149,172.776 217.551,159.583 204.579 C 145.006 190.245,143.821 189.087,143.676 189.035 C 143.557 188.992,141.318 190.863,134.333 196.841 C 130.504 200.118,119.204 209.746,117.417 211.254 C 114.729 213.521,111.964 215.873,109.901 217.645 C 106.567 220.509,104.125 222.591,98.917 227.011 C 96.075 229.423,92.756 232.244,91.542 233.281 C 90.327 234.318,88.321 236.030,87.084 237.084 C 85.847 238.139,83.841 239.850,82.626 240.886 C 81.411 241.922,78.842 244.113,76.917 245.753 C 74.992 247.393,72.681 249.366,71.782 250.136 C 69.716 251.904,69.570 251.785,71.355 249.789 C 72.122 248.930,73.800 247.039,75.083 245.585 C 76.367 244.132,78.092 242.179,78.917 241.247 C 79.742 240.314,81.400 238.433,82.602 237.067 C 94.181 223.907,97.671 219.943,99.325 218.074 C 100.384 216.878,102.300 214.707,103.583 213.251 C 104.867 211.795,106.554 209.883,107.333 209.001 C 108.112 208.120,111.222 204.591,114.244 201.158 C 117.265 197.725,121.652 192.748,123.994 190.097 C 126.335 187.446,128.850 184.590,129.583 183.751 C 130.317 182.911,131.967 181.039,133.250 179.590 C 134.533 178.140,136.221 176.228,137.000 175.339 C 137.779 174.450,139.612 172.362,141.074 170.698 L 143.731 167.672 144.989 168.878 C 146.386 170.217,154.204 177.905,162.019 185.626 C 168.051 191.585,172.497 195.904,172.645 195.947 C 172.703 195.964,173.387 195.190,174.167 194.226 C 177.640 189.930,182.142 184.412,190.197 174.583 C 191.699 172.750,196.623 166.731,201.139 161.208 C 205.654 155.685,209.402 151.170,209.466 151.174 C 209.566 151.180,213.356 155.924,218.583 162.583 C 220.011 164.402,230.168 177.217,233.247 181.083 C 237.580 186.525,239.198 188.561,241.156 191.042 C 242.296 192.485,243.281 193.667,243.345 193.667 C 243.444 193.667,249.578 187.142,252.509 183.919 C 253.008 183.370,254.092 182.205,254.917 181.328 C 255.742 180.452,257.654 178.393,259.167 176.754 C 260.679 175.114,262.898 172.717,264.097 171.428 C 265.295 170.138,269.192 165.933,272.756 162.083 C 276.319 158.233,280.140 154.108,281.247 152.917 C 282.354 151.725,286.182 147.602,289.754 143.755 C 293.327 139.908,296.659 136.308,297.159 135.755 C 297.659 135.202,298.672 134.112,299.409 133.333 C 300.929 131.728,306.133 126.099,307.046 125.073 L 307.648 124.397 303.491 121.323 C 301.204 119.633,299.334 118.203,299.333 118.146 C 299.333 118.088,300.102 117.725,301.042 117.337 C 302.769 116.626,307.556 114.608,316.083 110.998 C 318.650 109.912,321.313 108.797,322.000 108.520 C 322.688 108.244,324.712 107.383,326.500 106.606 C 330.177 105.009,330.362 104.960,330.242 105.625 M176.500 153.274 L 176.500 180.881 174.636 183.191 C 173.610 184.461,172.715 185.500,172.647 185.500 C 172.579 185.500,169.536 182.556,165.885 178.958 C 162.234 175.360,156.529 169.741,153.207 166.471 L 147.167 160.525 147.167 143.207 C 147.167 133.682,147.217 125.839,147.278 125.778 C 147.339 125.717,153.939 125.667,161.944 125.667 L 176.500 125.667 176.500 153.274 " stroke="none" fill="#fbfbfb" fill-rule="evenodd">
    </path>
    
    <path id="path2" d="M328.000 106.119 C 326.358 106.824,324.273 107.704,312.000 112.871 C 300.851 117.565,299.667 118.076,299.667 118.184 C 299.667 118.247,301.505 119.669,303.753 121.345 L 307.839 124.393 307.378 124.905 C 307.124 125.186,306.392 125.980,305.750 126.668 C 305.108 127.356,303.271 129.342,301.667 131.082 C 300.063 132.822,298.188 134.847,297.500 135.581 C 296.813 136.316,293.962 139.390,291.167 142.412 C 280.933 153.476,277.256 157.444,276.099 158.670 C 275.449 159.359,274.541 160.334,274.083 160.837 C 272.973 162.052,269.630 165.661,266.750 168.753 C 265.467 170.131,263.104 172.679,261.500 174.415 C 259.896 176.151,257.946 178.250,257.167 179.079 C 256.387 179.909,254.475 181.972,252.917 183.665 C 251.358 185.358,249.038 187.870,247.760 189.246 C 244.184 193.099,244.055 193.245,244.505 192.903 C 244.834 192.654,264.625 176.065,276.583 166.016 C 277.592 165.168,281.492 161.899,285.250 158.752 C 289.008 155.604,293.358 151.957,294.917 150.648 C 297.596 148.398,299.579 146.734,305.417 141.837 C 306.792 140.683,309.792 138.174,312.083 136.260 C 314.375 134.346,316.528 132.518,316.868 132.197 C 317.318 131.772,317.544 131.659,317.701 131.781 C 317.820 131.874,319.527 133.243,321.495 134.824 C 323.462 136.405,325.091 137.636,325.114 137.558 C 325.136 137.480,325.349 136.142,325.587 134.583 C 325.825 133.025,326.611 128.000,327.334 123.417 C 328.057 118.833,328.915 113.283,329.242 111.083 C 329.569 108.883,329.899 106.690,329.976 106.208 C 330.146 105.152,330.244 105.156,328.000 106.119 M208.307 152.625 C 207.731 153.335,205.607 155.938,203.588 158.409 C 201.569 160.880,199.204 163.775,198.333 164.842 C 197.463 165.909,195.813 167.926,194.667 169.324 C 193.521 170.723,192.021 172.558,191.333 173.404 C 190.646 174.249,187.946 177.551,185.333 180.742 C 182.721 183.932,179.833 187.463,178.917 188.588 C 178.000 189.713,176.289 191.811,175.114 193.250 C 173.939 194.689,173.001 195.885,173.030 195.909 C 173.059 195.932,175.108 194.736,177.583 193.250 C 180.058 191.765,186.958 187.642,192.917 184.088 C 198.875 180.533,205.015 176.858,206.562 175.921 L 209.374 174.217 210.893 175.128 C 211.728 175.629,214.175 177.057,216.331 178.300 C 218.486 179.544,221.563 181.321,223.167 182.250 C 227.893 184.987,233.517 188.238,237.022 190.261 C 238.822 191.299,240.875 192.493,241.586 192.913 C 242.297 193.333,242.902 193.654,242.931 193.625 C 242.973 193.583,237.106 186.111,232.102 179.833 C 231.627 179.237,228.921 175.825,226.089 172.250 C 223.257 168.675,220.104 164.700,219.083 163.417 C 218.062 162.133,216.215 159.808,214.979 158.250 C 210.566 152.687,209.477 151.333,209.416 151.333 C 209.382 151.333,208.883 151.915,208.307 152.625 M142.483 169.300 C 141.786 170.098,140.289 171.800,139.157 173.083 C 138.024 174.367,136.303 176.317,135.332 177.417 C 134.362 178.517,131.619 181.629,129.238 184.333 C 126.857 187.037,123.982 190.300,122.849 191.583 C 118.505 196.505,116.202 199.117,114.917 200.586 C 114.183 201.423,112.533 203.293,111.250 204.741 C 109.967 206.189,108.279 208.107,107.500 209.004 C 106.721 209.900,105.031 211.822,103.744 213.275 C 102.457 214.728,99.455 218.129,97.073 220.833 C 94.690 223.537,91.656 226.978,90.329 228.479 C 89.002 229.980,87.279 231.939,86.500 232.834 C 85.721 233.728,84.033 235.642,82.750 237.088 C 81.467 238.534,79.854 240.366,79.167 241.160 C 78.479 241.954,77.417 243.161,76.806 243.843 C 75.812 244.954,72.003 249.281,71.102 250.324 C 70.433 251.099,73.561 248.472,89.417 234.942 C 90.608 233.925,92.558 232.261,93.750 231.244 C 99.565 226.283,104.231 222.307,107.333 219.671 C 109.212 218.074,111.725 215.935,112.917 214.917 C 117.323 211.153,122.078 207.100,128.167 201.919 C 134.514 196.519,137.080 194.332,141.042 190.946 C 142.256 189.908,143.335 189.009,143.438 188.949 C 143.541 188.888,145.829 189.393,148.521 190.071 C 157.763 192.398,172.027 196.021,172.305 196.112 C 172.458 196.162,171.420 195.051,169.999 193.643 C 166.670 190.346,147.978 171.967,145.581 169.634 L 143.749 167.851 142.483 169.300 " stroke="none" fill="#4b7323" fill-rule="evenodd">
    </path>
    
    <path id="path3" d="M302.324 130.292 L 301.750 130.917 302.375 130.342 C 302.957 129.808,303.077 129.667,302.949 129.667 C 302.922 129.667,302.640 129.948,302.324 130.292 M317.250 131.833 C 317.194 131.925,315.070 133.741,312.532 135.869 C 309.994 137.997,306.792 140.682,305.417 141.836 C 304.042 142.990,301.754 144.909,300.333 146.101 C 298.912 147.294,296.475 149.340,294.917 150.648 C 293.358 151.957,289.008 155.604,285.250 158.752 C 281.492 161.899,277.592 165.168,276.583 166.016 C 265.105 175.662,244.744 192.723,244.120 193.217 C 243.178 193.964,243.648 194.114,239.667 191.802 C 238.154 190.924,235.004 189.100,232.667 187.750 C 230.329 186.400,227.479 184.750,226.333 184.083 C 225.188 183.416,222.338 181.766,220.000 180.416 C 212.058 175.830,210.251 174.775,209.750 174.432 L 209.250 174.089 209.831 174.836 C 210.343 175.496,213.181 179.085,216.747 183.583 C 217.401 184.408,218.975 186.396,220.245 188.000 C 221.515 189.604,223.240 191.779,224.079 192.833 C 226.932 196.416,236.288 208.225,241.144 214.371 L 243.083 216.825 243.667 216.199 C 243.987 215.854,245.454 214.187,246.926 212.494 C 248.398 210.802,254.057 204.317,259.503 198.083 C 269.863 186.225,273.479 182.084,286.070 167.667 C 290.272 162.854,294.402 158.129,295.248 157.167 C 296.093 156.204,298.092 153.917,299.690 152.083 C 303.011 148.273,309.265 141.105,313.449 136.314 C 315.019 134.517,316.598 132.735,316.959 132.356 C 317.320 131.977,317.556 131.667,317.484 131.667 C 317.412 131.667,317.307 131.742,317.250 131.833 M298.073 134.875 L 297.583 135.417 298.125 134.927 C 298.630 134.471,298.743 134.333,298.615 134.333 C 298.586 134.333,298.342 134.577,298.073 134.875 M293.906 139.375 L 293.417 139.917 293.958 139.427 C 294.256 139.158,294.500 138.914,294.500 138.885 C 294.500 138.757,294.362 138.870,293.906 139.375 M291.573 141.875 L 291.083 142.417 291.625 141.927 C 292.130 141.471,292.243 141.333,292.115 141.333 C 292.086 141.333,291.842 141.577,291.573 141.875 M287.406 146.375 L 286.917 146.917 287.458 146.427 C 287.963 145.971,288.077 145.833,287.948 145.833 C 287.919 145.833,287.675 146.077,287.406 146.375 M283.158 150.958 L 282.583 151.583 283.208 151.009 C 283.552 150.693,283.833 150.412,283.833 150.384 C 283.833 150.257,283.692 150.377,283.158 150.958 M278.906 155.542 L 278.417 156.083 278.958 155.594 C 279.463 155.138,279.577 155.000,279.448 155.000 C 279.419 155.000,279.175 155.244,278.906 155.542 M276.906 157.708 L 276.417 158.250 276.958 157.760 C 277.463 157.304,277.577 157.167,277.448 157.167 C 277.419 157.167,277.175 157.410,276.906 157.708 M272.573 162.375 L 272.083 162.917 272.625 162.427 C 273.130 161.971,273.243 161.833,273.115 161.833 C 273.086 161.833,272.842 162.077,272.573 162.375 M268.333 166.917 C 267.928 167.329,267.635 167.667,267.681 167.667 C 267.726 167.667,268.095 167.329,268.500 166.917 C 268.905 166.504,269.199 166.167,269.153 166.167 C 269.107 166.167,268.738 166.504,268.333 166.917 M145.417 169.500 C 146.330 170.417,147.115 171.167,147.160 171.167 C 147.206 171.167,146.497 170.417,145.583 169.500 C 144.670 168.583,143.885 167.833,143.840 167.833 C 143.794 167.833,144.503 168.583,145.417 169.500 M263.906 171.708 L 263.417 172.250 263.958 171.760 C 264.463 171.304,264.577 171.167,264.448 171.167 C 264.419 171.167,264.175 171.410,263.906 171.708 M261.991 173.792 L 261.417 174.417 262.042 173.842 C 262.623 173.308,262.743 173.167,262.616 173.167 C 262.588 173.167,262.307 173.448,261.991 173.792 M206.417 175.992 C 204.950 176.890,198.875 180.534,192.917 184.088 C 186.958 187.643,180.069 191.755,177.608 193.226 C 173.328 195.785,172.906 196.011,172.333 196.041 C 172.196 196.048,167.883 194.985,162.750 193.678 C 157.617 192.372,151.367 190.788,148.862 190.158 C 146.358 189.529,144.177 188.973,144.017 188.922 C 143.714 188.826,145.770 190.877,162.533 207.390 C 172.168 216.881,173.456 218.117,173.564 217.977 C 173.752 217.734,182.225 207.354,183.491 205.815 C 184.367 204.751,185.983 202.775,187.083 201.424 C 188.183 200.072,189.833 198.051,190.750 196.931 C 191.667 195.812,193.542 193.518,194.917 191.834 C 196.292 190.151,198.317 187.675,199.417 186.333 C 200.517 184.991,202.354 182.744,203.500 181.340 C 204.646 179.935,206.347 177.860,207.281 176.728 C 208.909 174.754,209.248 174.318,209.135 174.346 C 209.107 174.353,207.883 175.094,206.417 175.992 M257.824 178.292 L 257.250 178.917 257.875 178.342 C 258.457 177.808,258.577 177.667,258.449 177.667 C 258.422 177.667,258.140 177.948,257.824 178.292 M154.993 178.875 C 155.684 179.611,155.833 179.743,155.833 179.618 C 155.833 179.591,155.477 179.235,155.042 178.826 L 154.250 178.083 154.993 178.875 M157.333 181.250 C 157.831 181.754,158.276 182.167,158.322 182.167 C 158.368 182.167,157.998 181.754,157.500 181.250 C 157.002 180.746,156.557 180.333,156.511 180.333 C 156.466 180.333,156.835 180.746,157.333 181.250 M253.573 182.875 L 253.083 183.417 253.625 182.927 C 254.130 182.471,254.243 182.333,254.115 182.333 C 254.086 182.333,253.842 182.577,253.573 182.875 M249.406 187.375 L 248.917 187.917 249.458 187.427 C 249.963 186.971,250.077 186.833,249.948 186.833 C 249.919 186.833,249.675 187.077,249.406 187.375 M165.333 189.083 C 166.476 190.229,167.449 191.167,167.495 191.167 C 167.541 191.167,166.643 190.229,165.500 189.083 C 164.357 187.938,163.384 187.000,163.338 187.000 C 163.293 187.000,164.190 187.938,165.333 189.083 M247.073 189.875 L 246.583 190.417 247.125 189.927 C 247.630 189.471,247.743 189.333,247.615 189.333 C 247.586 189.333,247.342 189.577,247.073 189.875 M71.319 249.933 C 70.994 250.326,70.954 250.745,71.267 250.486 C 71.400 250.376,71.469 250.247,71.422 250.200 C 71.375 250.153,71.420 250.013,71.522 249.890 C 71.624 249.767,71.670 249.667,71.624 249.667 C 71.578 249.667,71.441 249.787,71.319 249.933 " stroke="none" fill="#8cc344" fill-rule="evenodd">
      
    </path>
    <path id="path4" d="M252.749 120.750 C 252.749 149.625,252.768 161.462,252.792 147.055 C 252.815 132.648,252.815 109.023,252.792 94.555 C 252.768 80.087,252.749 91.875,252.749 120.750 M185.444 94.278 C 185.275 94.448,185.310 169.833,185.480 169.833 C 185.561 169.833,185.829 169.552,186.076 169.208 L 186.524 168.583 186.012 169.160 L 185.500 169.737 185.500 132.035 L 185.500 94.333 200.000 94.333 L 214.500 94.333 214.500 120.526 L 214.500 146.718 214.125 146.402 C 213.808 146.134,213.814 146.158,214.167 146.556 L 214.583 147.027 214.626 120.805 C 214.650 106.383,214.633 94.490,214.590 94.375 C 214.504 94.149,185.669 94.053,185.444 94.278 M307.073 125.042 L 306.583 125.583 307.125 125.094 C 307.630 124.638,307.743 124.500,307.615 124.500 C 307.586 124.500,307.342 124.744,307.073 125.042 M147.243 125.875 C 147.200 125.990,147.184 133.846,147.208 143.333 L 147.252 160.583 147.292 143.222 C 147.325 129.520,147.377 125.843,147.542 125.777 C 147.705 125.711,147.704 125.690,147.536 125.680 C 147.419 125.673,147.287 125.760,147.243 125.875 M154.887 125.792 C 158.813 125.817,165.188 125.817,169.054 125.792 C 172.920 125.767,169.708 125.746,161.917 125.746 C 154.125 125.746,150.962 125.767,154.887 125.792 M305.409 126.875 L 304.750 127.583 305.458 126.925 C 306.117 126.312,306.243 126.167,306.117 126.167 C 306.090 126.167,305.771 126.485,305.409 126.875 M303.077 129.375 L 302.250 130.250 303.125 129.423 C 303.606 128.968,304.000 128.574,304.000 128.548 C 304.000 128.424,303.846 128.562,303.077 129.375 M301.158 131.458 L 300.583 132.083 301.208 131.509 C 301.790 130.974,301.910 130.833,301.783 130.833 C 301.755 130.833,301.474 131.115,301.158 131.458 M298.828 133.958 L 297.917 134.917 298.875 134.006 C 299.765 133.159,299.910 133.000,299.786 133.000 C 299.760 133.000,299.329 133.431,298.828 133.958 M315.573 133.875 L 315.083 134.417 315.625 133.927 C 316.130 133.471,316.243 133.333,316.115 133.333 C 316.086 133.333,315.842 133.577,315.573 133.875 M314.406 135.208 L 313.917 135.750 314.458 135.260 C 314.963 134.804,315.077 134.667,314.948 134.667 C 314.919 134.667,314.675 134.910,314.406 135.208 M296.991 135.958 L 296.417 136.583 297.042 136.009 C 297.623 135.474,297.743 135.333,297.616 135.333 C 297.588 135.333,297.307 135.615,296.991 135.958 M313.406 136.375 L 312.917 136.917 313.458 136.427 C 313.963 135.971,314.077 135.833,313.948 135.833 C 313.919 135.833,313.675 136.077,313.406 136.375 M294.667 138.417 C 294.262 138.829,293.968 139.167,294.014 139.167 C 294.060 139.167,294.428 138.829,294.833 138.417 C 295.238 138.004,295.532 137.667,295.486 137.667 C 295.440 137.667,295.072 138.004,294.667 138.417 M292.667 140.583 C 292.262 140.996,291.968 141.333,292.014 141.333 C 292.060 141.333,292.428 140.996,292.833 140.583 C 293.238 140.171,293.532 139.833,293.486 139.833 C 293.440 139.833,293.072 140.171,292.667 140.583 M309.906 140.375 L 309.417 140.917 309.958 140.427 C 310.463 139.971,310.577 139.833,310.448 139.833 C 310.419 139.833,310.175 140.077,309.906 140.375 M290.333 143.083 C 289.928 143.496,289.635 143.833,289.681 143.833 C 289.726 143.833,290.095 143.496,290.500 143.083 C 290.905 142.671,291.199 142.333,291.153 142.333 C 291.107 142.333,290.738 142.671,290.333 143.083 M306.406 144.375 L 305.917 144.917 306.458 144.427 C 306.963 143.971,307.077 143.833,306.948 143.833 C 306.919 143.833,306.675 144.077,306.406 144.375 M288.410 145.208 L 287.583 146.083 288.458 145.256 C 288.940 144.801,289.333 144.408,289.333 144.381 C 289.333 144.257,289.179 144.395,288.410 145.208 M305.406 145.542 L 304.917 146.083 305.458 145.594 C 305.963 145.138,306.077 145.000,305.948 145.000 C 305.919 145.000,305.675 145.244,305.406 145.542 M286.167 147.583 C 285.762 147.996,285.468 148.333,285.514 148.333 C 285.560 148.333,285.928 147.996,286.333 147.583 C 286.738 147.171,287.032 146.833,286.986 146.833 C 286.940 146.833,286.572 147.171,286.167 147.583 M284.078 149.875 L 283.083 150.917 284.125 149.922 C 285.093 148.998,285.243 148.833,285.120 148.833 C 285.094 148.833,284.625 149.302,284.078 149.875 M301.906 149.542 L 301.417 150.083 301.958 149.594 C 302.463 149.138,302.577 149.000,302.448 149.000 C 302.419 149.000,302.175 149.244,301.906 149.542 M281.909 152.208 L 281.250 152.917 281.958 152.258 C 282.617 151.645,282.743 151.500,282.617 151.500 C 282.590 151.500,282.271 151.819,281.909 152.208 M298.406 153.542 L 297.917 154.083 298.458 153.594 C 298.963 153.138,299.077 153.000,298.948 153.000 C 298.919 153.000,298.675 153.244,298.406 153.542 M198.398 153.951 C 198.045 154.382,197.843 154.681,197.949 154.615 C 198.176 154.475,199.231 153.167,199.117 153.167 C 199.075 153.167,198.751 153.519,198.398 153.951 M279.994 154.292 L 279.083 155.250 280.042 154.339 C 280.932 153.493,281.076 153.333,280.953 153.333 C 280.927 153.333,280.495 153.765,279.994 154.292 M277.667 156.750 C 277.262 157.162,276.968 157.500,277.014 157.500 C 277.060 157.500,277.428 157.162,277.833 156.750 C 278.238 156.337,278.532 156.000,278.486 156.000 C 278.440 156.000,278.072 156.337,277.667 156.750 M294.906 157.542 L 294.417 158.083 294.958 157.594 C 295.463 157.138,295.577 157.000,295.448 157.000 C 295.419 157.000,295.175 157.244,294.906 157.542 M275.577 159.042 L 274.750 159.917 275.625 159.090 C 276.106 158.635,276.500 158.241,276.500 158.215 C 276.500 158.090,276.346 158.229,275.577 159.042 M194.400 158.875 C 193.670 159.717,193.453 160.000,193.537 160.000 C 193.586 160.000,193.903 159.662,194.241 159.250 C 194.867 158.486,194.991 158.193,194.400 158.875 M273.410 161.375 L 272.583 162.250 273.458 161.423 C 273.940 160.968,274.333 160.574,274.333 160.548 C 274.333 160.424,274.179 160.562,273.410 161.375 M148.417 161.833 C 149.053 162.475,149.612 163.000,149.658 163.000 C 149.704 163.000,149.220 162.475,148.583 161.833 C 147.947 161.192,147.388 160.667,147.342 160.667 C 147.296 160.667,147.780 161.192,148.417 161.833 M225.833 161.333 C 226.124 161.700,226.399 162.000,226.445 162.000 C 226.491 162.000,226.290 161.700,226.000 161.333 C 225.710 160.967,225.434 160.667,225.389 160.667 C 225.343 160.667,225.543 160.967,225.833 161.333 M290.406 162.708 L 289.917 163.250 290.458 162.760 C 290.963 162.304,291.077 162.167,290.948 162.167 C 290.919 162.167,290.675 162.410,290.406 162.708 M271.333 163.583 C 270.928 163.996,270.635 164.333,270.681 164.333 C 270.726 164.333,271.095 163.996,271.500 163.583 C 271.905 163.171,272.199 162.833,272.153 162.833 C 272.107 162.833,271.738 163.171,271.333 163.583 M189.500 164.833 C 189.116 165.292,188.840 165.667,188.886 165.667 C 188.931 165.667,189.283 165.292,189.667 164.833 C 190.050 164.375,190.327 164.000,190.281 164.000 C 190.235 164.000,189.884 164.375,189.500 164.833 M288.073 165.375 L 287.583 165.917 288.125 165.427 C 288.630 164.971,288.743 164.833,288.615 164.833 C 288.586 164.833,288.342 165.077,288.073 165.375 M269.244 165.875 L 268.417 166.750 269.292 165.923 C 269.773 165.468,270.167 165.074,270.167 165.048 C 270.167 164.924,270.012 165.062,269.244 165.875 M155.750 169.000 C 157.673 170.925,159.285 172.500,159.330 172.500 C 159.376 172.500,157.840 170.925,155.917 169.000 C 153.993 167.075,152.382 165.500,152.336 165.500 C 152.290 165.500,153.827 167.075,155.750 169.000 M229.667 166.167 C 229.957 166.533,230.232 166.833,230.278 166.833 C 230.324 166.833,230.124 166.533,229.833 166.167 C 229.543 165.800,229.268 165.500,229.222 165.500 C 229.176 165.500,229.376 165.800,229.667 166.167 M266.991 168.292 L 266.417 168.917 267.042 168.342 C 267.623 167.808,267.743 167.667,267.616 167.667 C 267.588 167.667,267.307 167.948,266.991 168.292 M142.240 169.375 L 141.750 169.917 142.292 169.427 C 142.590 169.158,142.833 168.914,142.833 168.885 C 142.833 168.757,142.696 168.870,142.240 169.375 M265.167 170.250 C 264.762 170.662,264.468 171.000,264.514 171.000 C 264.560 171.000,264.928 170.662,265.333 170.250 C 265.738 169.837,266.032 169.500,265.986 169.500 C 265.940 169.500,265.572 169.837,265.167 170.250 M146.000 169.885 C 146.000 169.914,146.244 170.158,146.542 170.427 L 147.083 170.917 146.594 170.375 C 146.138 169.870,146.000 169.757,146.000 169.885 M141.073 170.708 L 140.583 171.250 141.125 170.760 C 141.423 170.491,141.667 170.248,141.667 170.219 C 141.667 170.090,141.529 170.203,141.073 170.708 M283.406 170.708 L 282.917 171.250 283.458 170.760 C 283.963 170.304,284.077 170.167,283.948 170.167 C 283.919 170.167,283.675 170.410,283.406 170.708 M150.750 174.667 C 152.123 176.042,153.283 177.167,153.329 177.167 C 153.375 177.167,152.289 176.042,150.917 174.667 C 149.544 173.292,148.383 172.167,148.338 172.167 C 148.292 172.167,149.377 173.292,150.750 174.667 M262.667 172.917 C 262.262 173.329,261.968 173.667,262.014 173.667 C 262.060 173.667,262.428 173.329,262.833 172.917 C 263.238 172.504,263.532 172.167,263.486 172.167 C 263.440 172.167,263.072 172.504,262.667 172.917 M281.073 173.375 L 280.583 173.917 281.125 173.427 C 281.630 172.971,281.743 172.833,281.615 172.833 C 281.586 172.833,281.342 173.077,281.073 173.375 M138.573 173.542 L 138.083 174.083 138.625 173.594 C 138.923 173.325,139.167 173.081,139.167 173.052 C 139.167 172.923,139.029 173.037,138.573 173.542 M251.411 174.542 L 250.417 175.583 251.458 174.589 C 252.031 174.041,252.500 173.573,252.500 173.547 C 252.500 173.424,252.336 173.574,251.411 174.542 M161.167 174.209 C 161.167 174.233,163.210 176.277,165.708 178.751 L 170.250 183.250 165.751 178.708 C 161.570 174.488,161.167 174.092,161.167 174.209 M137.406 174.875 L 136.917 175.417 137.458 174.927 C 137.756 174.658,138.000 174.414,138.000 174.385 C 138.000 174.257,137.862 174.370,137.406 174.875 M208.979 174.625 C 208.771 174.889,208.777 174.895,209.042 174.688 C 209.289 174.494,209.378 174.494,209.625 174.688 C 209.889 174.895,209.895 174.889,209.688 174.625 C 209.562 174.465,209.403 174.333,209.333 174.333 C 209.264 174.333,209.105 174.465,208.979 174.625 M260.906 174.875 L 260.417 175.417 260.958 174.927 C 261.463 174.471,261.577 174.333,261.448 174.333 C 261.419 174.333,261.175 174.577,260.906 174.875 M249.328 176.792 L 248.417 177.750 249.375 176.839 C 250.265 175.993,250.410 175.833,250.286 175.833 C 250.260 175.833,249.829 176.265,249.328 176.792 M258.494 177.458 L 257.583 178.417 258.542 177.506 C 259.069 177.005,259.500 176.573,259.500 176.547 C 259.500 176.424,259.341 176.568,258.494 177.458 M134.740 177.875 L 134.250 178.417 134.792 177.927 C 135.297 177.471,135.410 177.333,135.281 177.333 C 135.252 177.333,135.009 177.577,134.740 177.875 M246.994 179.292 L 246.083 180.250 247.042 179.339 C 247.932 178.493,248.076 178.333,247.953 178.333 C 247.927 178.333,247.495 178.765,246.994 179.292 M256.740 179.375 L 256.250 179.917 256.792 179.427 C 257.297 178.971,257.410 178.833,257.281 178.833 C 257.252 178.833,257.009 179.077,256.740 179.375 M245.078 181.375 L 244.083 182.417 245.125 181.422 C 246.093 180.498,246.243 180.333,246.120 180.333 C 246.094 180.333,245.625 180.802,245.078 181.375 M160.083 183.833 C 161.823 185.575,163.284 187.000,163.330 187.000 C 163.376 187.000,161.990 185.575,160.250 183.833 C 158.510 182.092,157.049 180.667,157.003 180.667 C 156.957 180.667,158.343 182.092,160.083 183.833 M254.244 182.042 L 253.417 182.917 254.292 182.090 C 254.773 181.635,255.167 181.241,255.167 181.215 C 255.167 181.090,255.012 181.229,254.244 182.042 M131.073 182.042 L 130.583 182.583 131.125 182.094 C 131.423 181.825,131.667 181.581,131.667 181.552 C 131.667 181.423,131.529 181.537,131.073 182.042 M129.906 183.375 L 129.417 183.917 129.958 183.427 C 130.256 183.158,130.500 182.914,130.500 182.885 C 130.500 182.757,130.362 182.870,129.906 183.375 M252.573 183.875 L 252.083 184.417 252.625 183.927 C 253.130 183.471,253.243 183.333,253.115 183.333 C 253.086 183.333,252.842 183.577,252.573 183.875 M127.406 186.208 L 126.917 186.750 127.458 186.260 C 127.756 185.991,128.000 185.748,128.000 185.719 C 128.000 185.590,127.862 185.703,127.406 186.208 M250.167 186.417 C 249.762 186.829,249.468 187.167,249.514 187.167 C 249.560 187.167,249.928 186.829,250.333 186.417 C 250.738 186.004,251.032 185.667,250.986 185.667 C 250.940 185.667,250.572 186.004,250.167 186.417 M248.167 188.583 C 247.762 188.996,247.468 189.333,247.514 189.333 C 247.560 189.333,247.928 188.996,248.333 188.583 C 248.738 188.171,249.032 187.833,248.986 187.833 C 248.940 187.833,248.572 188.171,248.167 188.583 M125.073 188.875 L 124.583 189.417 125.125 188.927 C 125.423 188.658,125.667 188.414,125.667 188.385 C 125.667 188.257,125.529 188.370,125.073 188.875 M146.250 191.500 C 147.623 192.875,148.783 194.000,148.829 194.000 C 148.875 194.000,147.789 192.875,146.417 191.500 C 145.044 190.125,143.883 189.000,143.838 189.000 C 143.792 189.000,144.877 190.125,146.250 191.500 M123.740 190.375 L 123.250 190.917 123.792 190.427 C 124.090 190.158,124.333 189.914,124.333 189.885 C 124.333 189.757,124.196 189.870,123.740 190.375 M245.833 191.083 C 245.428 191.496,245.135 191.833,245.181 191.833 C 245.226 191.833,245.595 191.496,246.000 191.083 C 246.405 190.671,246.699 190.333,246.653 190.333 C 246.607 190.333,246.238 190.671,245.833 191.083 M122.406 191.875 L 121.917 192.417 122.458 191.927 C 122.756 191.658,123.000 191.414,123.000 191.385 C 123.000 191.257,122.862 191.370,122.406 191.875 M170.500 194.083 C 171.551 195.137,172.449 196.000,172.495 196.000 C 172.540 196.000,171.718 195.137,170.667 194.083 C 169.615 193.029,168.718 192.167,168.672 192.167 C 168.626 192.167,169.449 193.029,170.500 194.083 M244.080 193.004 C 243.668 193.425,243.331 193.638,243.171 193.577 C 242.965 193.499,242.957 193.521,243.128 193.693 C 243.299 193.866,243.489 193.757,244.126 193.120 C 244.558 192.687,244.872 192.333,244.823 192.333 C 244.774 192.333,244.440 192.635,244.080 193.004 M121.240 193.208 L 120.750 193.750 121.292 193.260 C 121.590 192.991,121.833 192.748,121.833 192.719 C 121.833 192.590,121.696 192.703,121.240 193.208 M262.740 194.375 L 262.250 194.917 262.792 194.427 C 263.297 193.971,263.410 193.833,263.281 193.833 C 263.252 193.833,263.009 194.077,262.740 194.375 M120.073 194.542 L 119.583 195.083 120.125 194.594 C 120.630 194.138,120.743 194.000,120.615 194.000 C 120.586 194.000,120.342 194.244,120.073 194.542 M261.573 195.708 L 261.083 196.250 261.625 195.760 C 262.130 195.304,262.243 195.167,262.115 195.167 C 262.086 195.167,261.842 195.410,261.573 195.708 M117.573 197.375 L 117.083 197.917 117.625 197.427 C 117.923 197.158,118.167 196.914,118.167 196.885 C 118.167 196.757,118.029 196.870,117.573 197.375 M155.583 200.667 C 157.415 202.500,158.951 204.000,158.997 204.000 C 159.043 204.000,157.582 202.500,155.750 200.667 C 153.918 198.833,152.382 197.333,152.336 197.333 C 152.291 197.333,153.752 198.833,155.583 200.667 M259.240 198.375 L 258.750 198.917 259.292 198.427 C 259.797 197.971,259.910 197.833,259.781 197.833 C 259.752 197.833,259.509 198.077,259.240 198.375 M257.073 200.875 L 256.583 201.417 257.125 200.927 C 257.630 200.471,257.743 200.333,257.615 200.333 C 257.586 200.333,257.342 200.577,257.073 200.875 M113.906 201.542 L 113.417 202.083 113.958 201.594 C 114.256 201.325,114.500 201.081,114.500 201.052 C 114.500 200.923,114.362 201.037,113.906 201.542 M255.740 202.375 L 255.250 202.917 255.792 202.427 C 256.297 201.971,256.410 201.833,256.281 201.833 C 256.252 201.833,256.009 202.077,255.740 202.375 M126.740 203.208 L 126.250 203.750 126.792 203.260 C 127.090 202.991,127.333 202.748,127.333 202.719 C 127.333 202.590,127.196 202.703,126.740 203.208 M253.573 204.875 L 253.083 205.417 253.625 204.927 C 254.130 204.471,254.243 204.333,254.115 204.333 C 254.086 204.333,253.842 204.577,253.573 204.875 M110.073 205.875 L 109.583 206.417 110.125 205.927 C 110.423 205.658,110.667 205.414,110.667 205.385 C 110.667 205.257,110.529 205.370,110.073 205.875 M252.406 206.208 L 251.917 206.750 252.458 206.260 C 252.963 205.804,253.077 205.667,252.948 205.667 C 252.919 205.667,252.675 205.910,252.406 206.208 M162.333 207.250 C 162.644 207.571,162.936 207.833,162.982 207.833 C 163.028 207.833,162.811 207.571,162.500 207.250 C 162.189 206.929,161.897 206.667,161.851 206.667 C 161.805 206.667,162.022 206.929,162.333 207.250 M166.500 211.417 C 168.010 212.929,169.284 214.167,169.330 214.167 C 169.375 214.167,168.177 212.929,166.667 211.417 C 165.156 209.904,163.883 208.667,163.837 208.667 C 163.791 208.667,164.990 209.904,166.500 211.417 M106.406 210.042 L 105.917 210.583 106.458 210.094 C 106.756 209.825,107.000 209.581,107.000 209.552 C 107.000 209.423,106.862 209.537,106.406 210.042 M118.740 210.042 L 118.250 210.583 118.792 210.094 C 119.090 209.825,119.333 209.581,119.333 209.552 C 119.333 209.423,119.196 209.537,118.740 210.042 M103.906 212.875 L 103.417 213.417 103.958 212.927 C 104.256 212.658,104.500 212.414,104.500 212.385 C 104.500 212.257,104.362 212.370,103.906 212.875 M246.573 212.875 L 246.083 213.417 246.625 212.927 C 247.130 212.471,247.243 212.333,247.115 212.333 C 247.086 212.333,246.842 212.577,246.573 212.875 M245.573 214.042 L 245.083 214.583 245.625 214.094 C 246.130 213.638,246.243 213.500,246.115 213.500 C 246.086 213.500,245.842 213.744,245.573 214.042 M102.573 214.375 L 102.083 214.917 102.625 214.427 C 102.923 214.158,103.167 213.914,103.167 213.885 C 103.167 213.757,103.029 213.870,102.573 214.375 M109.740 217.708 L 109.250 218.250 109.792 217.760 C 110.297 217.304,110.410 217.167,110.281 217.167 C 110.252 217.167,110.009 217.410,109.740 217.708 M98.906 218.542 L 98.417 219.083 98.958 218.594 C 99.256 218.325,99.500 218.081,99.500 218.052 C 99.500 217.923,99.362 218.037,98.906 218.542 M97.740 219.875 L 97.250 220.417 97.792 219.927 C 98.090 219.658,98.333 219.414,98.333 219.385 C 98.333 219.257,98.196 219.370,97.740 219.875 M96.573 221.208 L 96.083 221.750 96.625 221.260 C 96.923 220.991,97.167 220.748,97.167 220.719 C 97.167 220.590,97.029 220.703,96.573 221.208 M105.240 221.542 L 104.750 222.083 105.292 221.594 C 105.590 221.325,105.833 221.081,105.833 221.052 C 105.833 220.923,105.696 221.037,105.240 221.542 M92.906 225.375 L 92.417 225.917 92.958 225.427 C 93.256 225.158,93.500 224.914,93.500 224.885 C 93.500 224.757,93.362 224.870,92.906 225.375 M91.573 226.875 L 91.083 227.417 91.625 226.927 C 91.923 226.658,92.167 226.414,92.167 226.385 C 92.167 226.257,92.029 226.370,91.573 226.875 M90.240 228.375 L 89.750 228.917 90.292 228.427 C 90.590 228.158,90.833 227.914,90.833 227.885 C 90.833 227.757,90.696 227.870,90.240 228.375 M89.073 229.708 L 88.583 230.250 89.125 229.760 C 89.423 229.491,89.667 229.248,89.667 229.219 C 89.667 229.090,89.529 229.203,89.073 229.708 M85.406 233.875 L 84.917 234.417 85.458 233.927 C 85.756 233.658,86.000 233.414,86.000 233.385 C 86.000 233.257,85.862 233.370,85.406 233.875 M81.573 238.208 L 81.083 238.750 81.625 238.260 C 81.923 237.991,82.167 237.748,82.167 237.719 C 82.167 237.590,82.029 237.703,81.573 238.208 M77.906 242.375 L 77.417 242.917 77.958 242.427 C 78.463 241.971,78.577 241.833,78.448 241.833 C 78.419 241.833,78.175 242.077,77.906 242.375 M75.406 245.208 L 74.917 245.750 75.458 245.260 C 75.963 244.804,76.077 244.667,75.948 244.667 C 75.919 244.667,75.675 244.910,75.406 245.208 M74.073 246.708 L 73.583 247.250 74.125 246.760 C 74.630 246.304,74.743 246.167,74.615 246.167 C 74.586 246.167,74.342 246.410,74.073 246.708 M73.073 247.875 L 72.583 248.417 73.125 247.927 C 73.423 247.658,73.667 247.414,73.667 247.385 C 73.667 247.257,73.529 247.370,73.073 247.875 M71.740 249.375 L 71.250 249.917 71.792 249.427 C 72.297 248.971,72.410 248.833,72.281 248.833 C 72.252 248.833,72.009 249.077,71.740 249.375 M70.418 250.832 C 70.156 251.106,69.992 251.381,70.054 251.443 C 70.210 251.599,70.944 250.887,70.944 250.580 C 70.944 250.265,70.975 250.250,70.418 250.832 " stroke="none" fill="#a1c8ba" fill-rule="evenodd">
    </path>
  </g>
</svg>